# xmcd
#
# Track frame offsets: 
#        150
#        18126
#        32918
#        43459
#        64225
#        78686
#        95326
#        113408
#        132324
#        148135
#        165369
#        183233
#        197334
#        212620
#        229738
#        245359
#        261470
#        278335
#        293335
#        308813
#        324152
#        340153
#
# Disc length: 4712 seconds
#
# Revision: 0
# Processed by: cddbd v1.5.1PL2 Copyright (c) Steve Scherf et al.
# Submitted via: ExactAudioCopy v0.95a5
#
DISCID=2e126616
DTITLE=Various Artist - Remembering Dad
DYEAR=1900
DGENRE=Country
TTITLE0=Bill Anderson - A Place In The Country
TTITLE1=Billy Ray Cyrus - Busy Man
TTITLE2=Bobby Darin - 18 Yellow Roses
TTITLE3=Brad Paisley - He Didn't Have To Be
TTITLE4=Chad Brock - Young Enough To Know It All
TTITLE5=Chris LeDoux - Fathers And Sons
TTITLE6=Clay Davidson - UnconditionAl
TTITLE7=Confederate Railroad - When You Leave That Way
TTITLE8=Doug Supernaw - Daddy Made The Dollars
TTITLE9=Doug Supernaw - I Don't Call Him Daddy
TTITLE10=Gary Morris - That's The Way It Is
TTITLE11=George Strait - Love Without End, Amen
TTITLE12=George Strait - The Best Day
TTITLE13=Harry Chapin - Cats In The Cradle
TTITLE14=Holly Dunn - Daddy's Hands
TTITLE15=John Anderson - I Wish I Could Have Been There
TTITLE16=Johnny Cash - A Boy Named Sue
TTITLE17=Julian Austin - Dad And I
TTITLE18=Randy Travis - He Walked On Water
TTITLE19=Randy Travis - The Box
TTITLE20=Red Sovine - Daddy's Girl
TTITLE21=Tracy Lawrence - Lessons Learned
EXTD=
EXTT0=
EXTT1=
EXTT2=
EXTT3=
EXTT4=
EXTT5=
EXTT6=
EXTT7=
EXTT8=
EXTT9=
EXTT10=
EXTT11=
EXTT12=
EXTT13=
EXTT14=
EXTT15=
EXTT16=
EXTT17=
EXTT18=
EXTT19=
EXTT20=
EXTT21=
PLAYORDER=
